<?xml version="1.0" encoding="utf-8"?>
<!-- Generator: Adobe Illustrator 23.0.5, SVG Export Plug-In . SVG Version: 6.00 Build 0)  -->
<svg version="1.1" id="Capa_1" xmlns="http://www.w3.org/2000/svg" xmlns:xlink="http://www.w3.org/1999/xlink" x="0px" y="0px"
	 viewBox="0 0 1392 228" style="enable-background:new 0 0 1392 228;" xml:space="preserve">
<style type="text/css">
	.st0{fill:#ECECEC;}
</style>
<g>
	<path class="st0" d="M443.9,90.2v45.3c0,0.6,0.2,1.1,0.5,1.6c0.5,0.4,1,0.5,1.6,0.5h20.8c0.6,0,1.1-0.2,1.4-0.5
		c0.5-0.5,0.7-1,0.7-1.6V90.2c0-0.5,0.1-0.8,0.2-1.1L506.4,15c0.4-0.8,0.4-1.4,0-1.8c-0.2-0.5-0.8-0.7-1.6-0.7h-22.9
		c-1.2,0-2,0.5-2.5,1.6L457,61.8c-0.4,0.7-0.7,0.7-1.1,0l-22.4-47.6c-0.5-1.1-1.3-1.6-2.5-1.6h-22.6c-1.3,0-2,0.5-2,1.4
		c0,0.2,0.1,0.6,0.4,1.1l36.9,74.1C443.9,89.4,443.9,89.7,443.9,90.2z"/>
	<path class="st0" d="M607.9,13.3c-0.4-0.5-0.8-0.7-1.4-0.7h-82.7c-0.6,0-1.1,0.2-1.6,0.7c-0.4,0.4-0.5,0.8-0.5,1.4v121
		c0,0.6,0.2,1.1,0.5,1.6c0.5,0.4,1,0.5,1.6,0.5h82.7c0.6,0,1.1-0.2,1.4-0.5c0.5-0.5,0.7-1,0.7-1.6v-17.4c0-0.6-0.2-1.1-0.7-1.4
		c-0.4-0.5-0.8-0.7-1.4-0.7h-58.7c-0.6,0-0.9-0.3-0.9-0.9v-29c0-0.6,0.3-0.9,0.9-0.9h38.5c0.6,0,1.1-0.2,1.4-0.5
		c0.5-0.5,0.7-1,0.7-1.6V65.9c0-0.6-0.2-1.1-0.7-1.4c-0.4-0.5-0.8-0.7-1.4-0.7h-38.5c-0.6,0-0.9-0.3-0.9-0.9V35.1
		c0-0.6,0.3-0.9,0.9-0.9h58.7c0.6,0,1.1-0.2,1.4-0.5c0.5-0.5,0.7-1,0.7-1.6V14.7C608.7,14.1,608.4,13.6,607.9,13.3z"/>
	<path class="st0" d="M718.9,136.4c0-0.2-0.1-0.6-0.4-1.1l-24.3-50.7c-0.2-0.6-0.1-1,0.5-1.3c7.3-2.4,12.9-6.4,17-12.2
		c4.1-5.8,6.1-12.8,6.1-20.9c0-7.5-1.6-14.1-4.8-19.9c-3.1-5.7-7.6-10.1-13.4-13.2c-5.7-3.1-12.4-4.7-20-4.7h-51.2
		c-0.6,0-1.1,0.2-1.6,0.7c-0.4,0.4-0.5,0.8-0.5,1.4v121c0,0.6,0.2,1.1,0.5,1.6c0.5,0.4,1,0.5,1.6,0.5h20.9c0.6,0,1.1-0.2,1.4-0.5
		c0.5-0.5,0.7-1,0.7-1.6V86.8c0-0.6,0.3-0.9,0.9-0.9H669c0.5,0,0.8,0.2,1.1,0.7l22.4,49.6c0.5,1.1,1.3,1.6,2.5,1.6h22
		C718.2,137.8,718.9,137.3,718.9,136.4z M687.9,62.1c-3.1,3-7.2,4.5-12.2,4.5h-23.4c-0.6,0-0.9-0.3-0.9-0.9V35.1
		c0-0.6,0.3-0.9,0.9-0.9h23.4c5,0,9.1,1.6,12.2,4.7c3.2,3,4.8,6.9,4.8,11.6C692.8,55.3,691.2,59.1,687.9,62.1z"/>
	<path class="st0" d="M810.4,73.6c-0.7-0.4-0.7-0.7,0-1.1c10.1-5.1,15.2-13.7,15.2-25.6c0-22.9-14.1-34.4-42.4-34.4h-44.9
		c-0.6,0-1.1,0.2-1.6,0.7c-0.4,0.4-0.5,0.8-0.5,1.4v121c0,0.6,0.2,1.1,0.5,1.6c0.5,0.4,1,0.5,1.6,0.5h46.4c12.8,0,23.1-2.9,31-8.8
		c7.9-6,11.8-14.7,11.8-26.3C827.4,89.1,821.7,79.4,810.4,73.6z M761.4,35.1c0-0.6,0.3-0.9,0.9-0.9h20.9c5.6,0,10,1.4,13.1,4.1
		c3.1,2.6,4.7,6.3,4.7,10.9c0,4.5-1.6,8.1-4.7,10.7c-3.1,2.6-7.5,3.9-13.1,3.9h-20.9c-0.6,0-0.9-0.3-0.9-0.9V35.1z M797.5,111.9
		c-3.1,2.7-7.4,4.1-12.9,4.1h-22.4c-0.6,0-0.9-0.3-0.9-0.9V85.4c0-0.6,0.3-0.9,0.9-0.9h22.2c5.6,0,10,1.4,13.1,4.3
		c3.1,2.7,4.7,6.6,4.7,11.5C802.2,105.1,800.6,109,797.5,111.9z"/>
	<path class="st0" d="M933.4,13.3c-0.4-0.5-0.8-0.7-1.4-0.7h-82.7c-0.6,0-1.1,0.2-1.6,0.7c-0.4,0.4-0.5,0.8-0.5,1.4v121
		c0,0.6,0.2,1.1,0.5,1.6c0.5,0.4,1,0.5,1.6,0.5H932c0.6,0,1.1-0.2,1.4-0.5c0.5-0.5,0.7-1,0.7-1.6v-17.4c0-0.6-0.2-1.1-0.7-1.4
		c-0.4-0.5-0.8-0.7-1.4-0.7h-58.7c-0.6,0-0.9-0.3-0.9-0.9v-29c0-0.6,0.3-0.9,0.9-0.9h38.5c0.6,0,1.1-0.2,1.4-0.5
		c0.5-0.5,0.7-1,0.7-1.6V65.9c0-0.6-0.2-1.1-0.7-1.4c-0.4-0.5-0.8-0.7-1.4-0.7h-38.5c-0.6,0-0.9-0.3-0.9-0.9V35.1
		c0-0.6,0.3-0.9,0.9-0.9H932c0.6,0,1.1-0.2,1.4-0.5c0.5-0.5,0.7-1,0.7-1.6V14.7C934.1,14.1,933.9,13.6,933.4,13.3z"/>
	<path class="st0" d="M1017.2,14.3c-0.4-1.2-1.1-1.8-2.3-1.8h-28.1c-1.2,0-2,0.6-2.3,1.8l-38.7,121c-0.2,0.8-0.2,1.5,0.2,2
		c0.4,0.4,0.9,0.5,1.6,0.5h22.7c1.2,0,2-0.6,2.3-1.8l5.2-17.5c0.2-0.5,0.5-0.7,0.9-0.7h44c0.3,0,0.6,0.2,0.9,0.7l5.4,17.5
		c0.4,1.2,1.1,1.8,2.3,1.8h22.7c1.3,0,2-0.5,2-1.6c0-0.4-0.1-0.7-0.2-0.9L1017.2,14.3z M1016.4,98.3h-31.5c-0.6,0-0.8-0.4-0.7-1.1
		L1000,44c0.1-0.4,0.3-0.5,0.5-0.5c0.2-0.1,0.4,0.1,0.5,0.5l16.1,53.2C1017.4,97.9,1017.2,98.3,1016.4,98.3z"/>
	<path class="st0" d="M1168.2,13.3c-0.4-0.5-0.8-0.7-1.4-0.7h-20.9c-0.6,0-1.1,0.2-1.6,0.7c-0.4,0.4-0.5,0.8-0.5,1.4l0.2,75.2
		c0,0.5-0.1,0.8-0.4,0.9c-0.2,0-0.5-0.2-0.7-0.5L1096.6,14c-0.5-1-1.3-1.4-2.5-1.4h-20.2c-0.6,0-1.1,0.2-1.6,0.7
		c-0.4,0.4-0.5,0.8-0.5,1.4v121c0,0.6,0.2,1.1,0.5,1.6c0.5,0.4,1,0.5,1.6,0.5h20.9c0.6,0,1.1-0.2,1.4-0.5c0.5-0.5,0.7-1,0.7-1.6
		l-0.4-75.5c0-0.5,0.1-0.7,0.4-0.7c0.2-0.1,0.5,0,0.7,0.4l46.4,76.6c0.5,1,1.3,1.4,2.5,1.4h20.2c0.6,0,1.1-0.2,1.4-0.5
		c0.5-0.5,0.7-1,0.7-1.6v-121C1168.9,14.1,1168.7,13.6,1168.2,13.3z"/>
	<path class="st0" d="M1260.1,17.4c-6.7-3.2-14.5-4.8-23.4-4.8h-44.8c-0.6,0-1.1,0.2-1.6,0.7c-0.4,0.4-0.5,0.8-0.5,1.4v121
		c0,0.6,0.2,1.1,0.5,1.6c0.5,0.4,1,0.5,1.6,0.5h44.8c9,0,16.8-1.6,23.4-4.7c6.8-3.2,12.1-7.7,15.8-13.4c3.7-5.7,5.5-12.4,5.5-19.9
		V50.5c0-7.5-1.8-14.1-5.5-19.9C1272.1,24.9,1266.9,20.5,1260.1,17.4z M1256.1,95.8c-0.1,6.2-1.9,11.2-5.4,14.9
		c-3.3,3.7-7.8,5.5-13.3,5.5h-21.7c-0.6,0-0.9-0.3-0.9-0.9V35.1c0-0.6,0.3-0.9,0.9-0.9h21.5c5.7,0,10.3,1.8,13.6,5.5
		c3.5,3.7,5.2,8.7,5.2,14.9V95.8z"/>
	<path class="st0" d="M1386.1,32.6c-3.9-6.8-9.5-12.1-16.6-15.8c-7-3.8-15.3-5.7-24.7-5.7c-9.3,0-17.5,1.9-24.7,5.7
		c-7,3.7-12.5,8.9-16.5,15.8c-3.9,6.8-5.9,14.6-5.9,23.4v38.3c0,8.9,2,16.9,5.9,23.8c3.9,6.8,9.4,12.1,16.5,15.9
		c7.2,3.8,15.4,5.7,24.7,5.7c9.4,0,17.7-1.8,24.7-5.5c7.2-3.8,12.7-9.2,16.6-16.1c3.9-6.9,5.9-14.9,5.9-23.8V56
		C1392,47.2,1390,39.4,1386.1,32.6z M1366.8,95.2c0,6.9-2,12.5-6.1,16.6c-4.1,4.2-9.4,6.3-15.9,6.3s-11.9-2.1-15.9-6.3
		c-3.9-4.2-5.9-9.7-5.9-16.6V55.9c0-6.9,2-12.5,5.9-16.6c4.1-4.3,9.4-6.4,15.9-6.4c6.7,0,12,2.1,15.9,6.4c4,4.2,6.1,9.7,6.1,16.6
		V95.2z"/>
	<path class="st0" d="M100,130c0.2,0,0.4,0,0.6-0.1c0.7-0.3,17.4-8.2,25.3-24c0.3-0.7,0.1-1.5-0.6-1.8c-0.7-0.3-1.5-0.1-1.8,0.6
		c-7.5,14.9-23.9,22.7-24,22.7c-0.7,0.3-1,1.1-0.7,1.8C99,129.8,99.5,130,100,130z"/>
	<path class="st0" d="M383.4,172.8c-0.1,0-12-3-45-27c-2.2-1.6-4.3-3.2-6.4-4.7c-28.7-21-44.7-32.7-71-32c0.3-7.9-4.4-19-7.6-26.5
		c-0.6-1.4-1.2-2.7-1.6-3.8c-0.8-2-1.2-3.3-1.3-4.3c0.1-0.3,0.1-0.6,0-0.8c0.1-0.8,0.6-1.5,1.3-2.5c0.3-0.5,0.7-1,1.1-1.6
		c2.9-4.4,7.6-8.8,7.6-8.9c0.3-0.3,0.4-0.6,0.4-1c0-3.1-1.6-9.2-7.6-10.4c-2-0.4-6.5-0.9-12.2-1.5c3.9-5.1,14.6-19,15.8-21.3
		c0.3-0.5,0.5-0.6,1.7-0.5c1.2,0.1,2.8,0.1,4.2-1.2c1-1,1.3-2,1.4-2.7c0.2-0.7,0.2-0.9,1.1-1.4c2.7-1.3,20.9-13,22.4-14.5
		c1.1-1.1,1.6-3.4,0.6-5c-0.4-0.7-1.7-2.1-4.6-1.1c-2.8,0.9-11.3,5.9-17.5,9.6c-2.8,1.6-5.2,3.1-6,3.5c-0.8,0.4-1.3,0.3-2,0.2
		c-1.1-0.2-2.7-0.4-4.7,1.3c-1.8,1.5-1.8,3.3-1.8,4.7v0.1c-0.5,1.1-4.2,4.7-7,7.4c-1.1,1.1-2.3,2.2-3.4,3.3
		c-4.1,4.1-13.3,14.7-14.9,16.6c-10.1-0.7-20.5-1.3-26.6-1.3c-13.3,0-30.5,2.7-38.1,5.3c-9.4,3.1-9.9,8.3-8.6,12.1
		c0.9,2.6,2.8,5.2,4.3,6.8c-2.4,0.2-3.1,0.5-3.4,0.6c-4,1.3-20.5,3.8-26.6,2.6c-4.9-1-14.2-1.9-20.5,2.8c-2.1,1.6-6.4,2.8-12.4,4.4
		c-7.8,2.2-18.4,5.2-31.5,11C39.9,101.5,1,127.3,0.6,127.6c-0.6,0.4-0.8,1.2-0.4,1.8c0.3,0.4,0.7,0.6,1.1,0.6c0.3,0,0.5-0.1,0.7-0.2
		c0.4-0.3,39.1-26,62.1-36.2c12.9-5.7,23.5-8.7,31.2-10.8c6.5-1.8,10.7-3,13.3-4.9c5.5-4.1,13.9-3.3,18.4-2.4
		c6.9,1.4,24.2-1.4,28-2.6c0.9-0.3,4.4-0.8,17.7-1.1c0.1,2.7,1.8,7.6,7.8,7.6c4.9,0,7.8-1.4,9.1-2.3c0.1,1.5-0.2,2.9-1.1,4.1
		c-1.4,1.9-7.6,5.7-32.2,9.2c-9.2,1.3-17.2,2.6-21.3,5.4c-3.8,2.5-7.1,4.7-15.5,0c-6.9-4-8.3-5.5-8.5-5.8c-0.2-0.5-0.7-0.9-1.3-0.9
		c-0.7,0-1.3,0.6-1.3,1.3c0,0.6,0,2.1,9.8,7.6c7.2,4.1,11.6,3.6,15,1.9c-4.7,15.7-5.9,52.9-5.9,54.6c0,0.7,0.6,1.3,1.3,1.4
		c0,0,0,0,0,0c0.7,0,1.3-0.6,1.3-1.3c0-0.1,0.1-3.2,0.3-7.8c3.6-0.5,7,1.1,10.7,2.9c3.8,1.8,7.7,3.7,12.3,3.7
		c5.1,0,8.8,1.3,10.3,3.5c0.9,1.4,1,3.1,0.2,5.1c-2,4.9-28.4,3.4-38.6,0.5c-7.5-2.1-12.6-0.9-22.6,1.6c-2.7,0.7-5.7,1.4-9.2,2.2
		c-12.7,2.9-24-1-28.4-2.9c7.9-7.2,9.2-19.8,9.2-20.3c0.1-0.7-0.5-1.4-1.2-1.4c-0.7-0.1-1.4,0.5-1.4,1.2c0,0.1-1.4,13.7-9.8,19.8
		c-0.4,0.3-0.6,0.7-0.6,1.2s0.3,0.9,0.7,1.1c0.5,0.3,9.6,5.2,22,5.2c3.2,0,6.6-0.3,10.1-1.1c3.6-0.8,6.6-1.6,9.2-2.2
		c9.9-2.5,14.4-3.6,21.3-1.7c7.9,2.3,38.7,5.9,41.9-2.1c1.4-3.6,0.6-6.1-0.4-7.6c-2-3-6.5-4.6-12.5-4.6c-4.1,0-7.7-1.7-11.2-3.4
		c-3.7-1.8-7.5-3.6-11.7-3.2c0.1-1.1,0.1-2.2,0.2-3.3l27.2,0.8c0.1,0.9,0.4,1.7,0.8,2.5c2.1,4,7.8,6.9,20.3,10.5
		c3.6,1,7.4,2.1,11.2,3.2c15,4.3,30.4,8.7,35.7,9.8c2.5,0.5,7.8,1.2,13.5,1.8c-8.8,0.1-18.6,0.1-23.5-0.5
		c-5.1-0.6-13.2-2.6-20.4-4.3c-7.9-1.9-14.7-3.5-17.4-3.5c-7.4,0-11.7,2.4-11.7,6.5c0,0.2,0,0.4,0,0.7c-0.1,5.1,1.3,10.2,19.1,16.2
		c5.9,2,12.1,4,18.2,5.8c0,0.2,0.1,0.3,0.2,0.5c0.4,0.6,9.9,15.7,20.7,18.4c10.7,2.7,31.3,9.2,40.1,12.9c9.2,3.9,24.4,5.2,25.1,5.3
		c0,0,0.1,0,0.1,0c0.7,0,1.3-0.5,1.3-1.2c0.1-0.7-0.5-1.4-1.2-1.4c-0.2,0-15.5-1.3-24.3-5.1c-8.9-3.8-29.7-10.3-40.5-13
		c-7.5-1.9-14.7-11-17.7-15.2c12.1,3.5,23.9,6.1,33,6.1h14.3c0.7,0,1.3-0.6,1.3-1.3c0-0.7-0.6-1.3-1.3-1.3h-14.3
		c-14.2,0-35.4-6.7-54.1-12.9c-3.7-1.2-6.7-2.4-9-3.5c1.4-1.4,3.4-3.9,3.4-6.9c0-2.8-2-5.8-3.6-7.7c0.3,0,0.6,0,1,0
		c2.5,0,9.4,1.7,16.8,3.4c7.6,1.8,15.5,3.7,20.7,4.3c10.4,1.3,40.8,0.2,42.1,0.1c0.3,0,0.5-0.1,0.7-0.2c0.8,0.1,1.3,0.1,1.4,0.1
		c0,0,0.1,0,0.1,0c0.7,0,1.3-0.5,1.3-1.2c0.1-0.7-0.5-1.4-1.2-1.5c-0.3,0-27.3-2.6-33.6-3.9c-5.1-1-20.5-5.5-35.5-9.7
		c-3.8-1.1-7.6-2.2-11.2-3.2c-3.3-0.9-6-1.8-8.4-2.7c1.4-1.4,2.3-3.9,2.8-7.5c0.6-3.9-0.4-6.8-2-8.9c1.6,0.9,3.4,1.6,5.5,2.2
		c9.2,2.6,32.8,5.2,38,5.2c1.5,0,4.9,0.6,9.3,1.4c9.1,1.6,22.3,4,34.6,4c1.9,0,3.7-0.1,5.6-0.2c0.7,0,1.3-0.7,1.2-1.4
		c-0.1-0.7-0.7-1.3-1.4-1.2c-13.4,0.9-29.1-1.9-39.5-3.8c-4.7-0.8-8-1.4-9.8-1.4c-5.1,0-28.2-2.6-37.3-5.1c-0.7-0.2-1.3-0.4-2-0.7
		c3.5-1.2,6.9-3.7,6.9-8.5c0-4.6-1.9-7.4-3.6-9c1.2,0,2.5,0,3.6,0c24.2,0,41.1,0.9,47.7,2.6c7.1,1.8,17,1.8,28.4,1.6
		c0,0,0.1,0,0.1,0c0,0,0,0,0,0c0.1,0,0.1,0,0.1,0c1.1,0,2.2,0,3.3-0.1c4.5-0.1,9.1-0.2,13.8-0.2c16.9,0,20.8,6.9,20.9,7.1
		c0.3,0.6,1.1,0.9,1.8,0.6c0.7-0.3,0.9-1.1,0.6-1.8c-0.2-0.3-4.5-8.5-23.3-8.5c-4.7,0-9.4,0.1-13.8,0.2c-0.7,0-1.4,0-2,0
		c0-0.8,0.1-2.1,0.2-4.1c25.5-0.8,40.4,10.1,69.6,31.4c2.1,1.5,4.2,3.1,6.4,4.7c33.6,24.5,45.5,27.4,45.9,27.5c0.1,0,0.2,0,0.3,0
		c0.6,0,1.2-0.4,1.3-1C384.6,173.7,384.1,173,383.4,172.8z M177.9,171.5c0,2.5-2.2,4.7-3.2,5.5c-5.9-3.5-5.9-6.3-5.8-8.7
		c0-0.2,0-0.5,0-0.7c0-1.9,2.1-3,4.8-3.5C175.2,165.7,177.9,169.1,177.9,171.5z M243.4,32.2c1.1-1.1,2.2-2.2,3.4-3.3
		c6.1-6,7.8-7.8,7.8-9.1v-0.2c0-1.2,0-2,0.8-2.6c1.1-0.9,1.6-0.9,2.6-0.7c0.9,0.1,2.1,0.3,3.6-0.4c0.9-0.4,3.2-1.8,6.2-3.5
		c5.8-3.4,14.5-8.5,17-9.4c0.6-0.2,1.3-0.3,1.5,0c0.3,0.4,0.1,1.4-0.3,1.7c-1.2,1.2-19.1,12.7-21.7,14c-2,1-2.3,2.3-2.5,3.2
		c-0.1,0.6-0.2,0.9-0.7,1.4c-0.5,0.5-1.1,0.5-2.2,0.5c-1.3-0.1-3.2-0.2-4.3,2c-0.9,1.8-10.3,14.1-16.5,22.2
		c-2.6-0.2-5.4-0.5-8.2-0.7C233,43.6,240.1,35.5,243.4,32.2z M180.5,76.8c-4.7,0-5.1-4.1-5.2-5c5.4-0.1,10.1-0.1,11.5-0.1
		c0.4,0.3,1.4,1.3,2.1,2.8c-0.1,0-0.2,0.1-0.2,0.1C188.7,74.6,186.3,76.8,180.5,76.8z M135.7,101c5.5,0.6,10.6,0.7,14.5,0.7
		c2.4,0,4.3-0.1,5.6-0.1c-0.4,4.4-0.5,9.9,0.4,15.5l-23.8,2.4C133.2,112.3,134.3,105.6,135.7,101z M156.6,119.7
		c0.2,0.8,0.4,1.6,0.6,2.3l-11.9-1.2L156.6,119.7z M156.7,93.1c0.1,0,0.3,0,0.4-0.1c-0.3,1.4-0.7,3.4-1.1,5.9
		c-2.7,0.1-10.7,0.4-19.5-0.5c0.1-0.2,0.1-0.4,0.2-0.5C140.6,95.5,148.4,94.2,156.7,93.1z M132.1,122.2l26,2.6
		c0.8,2.3,1.8,4.5,3,6.7c-1,1.1-1.9,2.6-2.5,4.6c-0.3,1-0.6,2-0.7,2.9l-27.1-0.8C131.1,133.2,131.5,127.7,132.1,122.2z M171.4,141.5
		c-0.7,4.7-1.9,6-2.4,6.3c-0.4,0.2-0.6,0.2-0.6,0.2l-0.1,0.2c-4-1.7-6.4-3.5-7.3-5.3c-0.8-1.6-0.8-3.4,0-6c1.2-3.5,3.1-5,4.7-5.5
		C166.1,131.5,172.5,133.7,171.4,141.5z M175.4,115c0.2,0.1,5.1,1.8,5.1,8.5c0,5.2-5.8,6.3-8.1,6.6c-3.4-2.1-5.8-5.3-4.8-10.2
		c0.6-3.2,3.8-4.5,7.6-5C175.2,114.9,175.3,115,175.4,115z M231.5,114.4c-6.8-1.7-24-2.6-48.4-2.6c-6.6,0-16.7,0-18.2,7.6
		c-0.7,3.4,0,6.4,1.8,9c-1.1,0.2-2.4,0.6-3.6,1.3c-8-14.8-4.1-33.4-3.1-37.2c17.5-2.7,27.9-6,30.7-9.8c2.1-2.7,2.2-6.3,0.5-9.8
		c-0.7-1.4-2.5-4-4.2-4c-1.1,0-7.2,0-13.8,0.1c-5.6,0.1-9.5,0.3-12.3,0.4c-0.5-0.6-4-4.1-5.1-7.4c-0.8-2.5-1-6,6.9-8.7
		c7.4-2.5,24.2-5.1,37.2-5.1c12.9,0,46.7,2.6,53,3.9c4.5,0.9,5.3,5.6,5.4,7.2c-1.3,1.2-5,5-7.5,8.9c-0.4,0.6-0.7,1.1-1,1.5
		c-0.7,0.9-1.2,1.7-1.5,2.5c-4.2-1.7-15.7-5.4-31.6-3.3c-0.7,0.1-1.2,0.8-1.1,1.5c0.1,0.7,0.8,1.2,1.5,1.1
		c16.2-2.2,27.8,2.1,30.9,3.4c0.1,1.2,0.6,2.7,1.5,4.8c0.4,1.1,1,2.4,1.6,3.8c3.1,7.2,7.8,18.2,7.4,25.4c-0.2,3.6-0.3,5.7-0.3,6.8
		C247.3,116.1,238.1,116.1,231.5,114.4z"/>
	<path class="st0" d="M452.5,208.3c-0.4,0.1-1,0.1-1.6,0.1c-1.1,0-2.1-0.2-3-0.6c-0.9-0.4-1.7-1.1-2.3-2c-0.6-1-0.9-2.3-0.9-4v-26
		h8.6v-4.1h-8.6V162h-4.7v9.7H434v4.1h6.1v27.1c0,2.2,0.5,4.1,1.5,5.6c1,1.5,2.3,2.6,3.9,3.4c1.6,0.8,3.3,1.1,5,1.1
		c1,0,1.8-0.1,2.5-0.2c0.7-0.1,1.2-0.3,1.7-0.5l-1-4.3C453.4,208.1,453,208.2,452.5,208.3z"/>
	<path class="st0" d="M488.8,173.8c-2.7-1.8-5.8-2.7-9.3-2.7s-6.6,0.9-9.3,2.7c-2.7,1.8-4.8,4.2-6.3,7.4c-1.5,3.2-2.3,6.8-2.3,11
		c0,4.1,0.8,7.8,2.3,10.9c1.5,3.1,3.6,5.6,6.3,7.4c2.7,1.8,5.8,2.7,9.3,2.7s6.6-0.9,9.3-2.7c2.7-1.8,4.8-4.2,6.3-7.4
		c1.5-3.2,2.3-6.8,2.3-10.9c0-4.2-0.8-7.8-2.3-11C493.6,178.1,491.5,175.6,488.8,173.8z M491.1,200.6c-1,2.5-2.5,4.5-4.4,6.1
		c-2,1.5-4.4,2.3-7.2,2.3c-2.8,0-5.2-0.8-7.2-2.3c-2-1.5-3.5-3.5-4.5-6.1c-1-2.5-1.5-5.3-1.5-8.3c0-3,0.5-5.8,1.5-8.4
		c1-2.5,2.5-4.6,4.5-6.1c2-1.5,4.4-2.3,7.2-2.3c2.8,0,5.2,0.8,7.2,2.3c2,1.5,3.4,3.6,4.4,6.1c1,2.5,1.5,5.3,1.5,8.4
		C492.6,195.3,492.1,198.1,491.1,200.6z"/>
	<path class="st0" d="M535.3,179.5h-0.4c-0.5-1.2-1.3-2.5-2.3-3.8c-1-1.3-2.3-2.4-3.9-3.2c-1.6-0.9-3.7-1.3-6.2-1.3
		c-3.4,0-6.3,0.9-8.8,2.6c-2.5,1.7-4.5,4.2-5.9,7.4c-1.4,3.1-2.1,6.8-2.1,11c0,4.2,0.7,7.9,2.1,11c1.4,3.2,3.4,5.6,5.9,7.4
		c2.5,1.8,5.4,2.6,8.8,2.6c2.5,0,4.5-0.4,6.2-1.3c1.7-0.9,3-2,4-3.3c1-1.3,1.8-2.6,2.3-3.8h0.6v7.5h4.6v-54.2h-4.7V179.5z
		 M533.9,200.8c-1,2.5-2.4,4.5-4.2,6c-1.9,1.4-4.1,2.1-6.7,2.1c-2.7,0-5-0.7-6.9-2.2c-1.9-1.5-3.3-3.5-4.2-6.1
		c-1-2.5-1.5-5.4-1.5-8.6c0-3.1,0.5-5.9,1.4-8.4c1-2.5,2.4-4.5,4.2-6c1.9-1.5,4.2-2.2,6.9-2.2c2.6,0,4.9,0.7,6.8,2.1
		c1.9,1.4,3.3,3.4,4.2,5.9c1,2.5,1.5,5.4,1.5,8.6C535.4,195.4,534.9,198.3,533.9,200.8z"/>
	<path class="st0" d="M578.6,173.8c-2.7-1.8-5.8-2.7-9.3-2.7c-3.5,0-6.6,0.9-9.3,2.7c-2.7,1.8-4.8,4.2-6.3,7.4
		c-1.5,3.2-2.3,6.8-2.3,11c0,4.1,0.8,7.8,2.3,10.9c1.5,3.1,3.6,5.6,6.3,7.4c2.7,1.8,5.8,2.7,9.3,2.7c3.5,0,6.6-0.9,9.3-2.7
		c2.7-1.8,4.8-4.2,6.3-7.4c1.5-3.2,2.3-6.8,2.3-10.9c0-4.2-0.8-7.8-2.3-11C583.4,178.1,581.3,175.6,578.6,173.8z M580.9,200.6
		c-1,2.5-2.5,4.5-4.4,6.1c-2,1.5-4.4,2.3-7.2,2.3c-2.8,0-5.2-0.8-7.2-2.3c-2-1.5-3.5-3.5-4.5-6.1c-1-2.5-1.5-5.3-1.5-8.3
		c0-3,0.5-5.8,1.5-8.4c1-2.5,2.5-4.6,4.5-6.1c2-1.5,4.4-2.3,7.2-2.3c2.8,0,5.2,0.8,7.2,2.3c2,1.5,3.4,3.6,4.4,6.1
		c1,2.5,1.5,5.3,1.5,8.4C582.4,195.3,581.9,198.1,580.9,200.6z"/>
	<path class="st0" d="M644.9,173.8c-2.5-1.8-5.4-2.6-8.8-2.6c-2.5,0-4.6,0.4-6.2,1.3c-1.6,0.9-2.9,2-3.9,3.3c-1,1.3-1.8,2.5-2.3,3.7
		h-0.6v-7.8h-4.6v55.9h4.7v-22.8h0.4c0.5,1.2,1.3,2.5,2.3,3.8c1,1.3,2.4,2.4,4,3.3c1.7,0.9,3.7,1.3,6.2,1.3c3.3,0,6.2-0.9,8.7-2.6
		c2.5-1.8,4.5-4.2,5.9-7.4c1.4-3.2,2.1-6.8,2.1-11c0-4.2-0.7-7.8-2.1-11C649.4,178,647.4,175.6,644.9,173.8z M646.7,200.6
		c-1,2.5-2.4,4.6-4.3,6.1c-1.9,1.5-4.1,2.2-6.8,2.2c-2.6,0-4.9-0.7-6.7-2.1c-1.8-1.4-3.2-3.4-4.2-6c-1-2.5-1.5-5.5-1.5-8.7
		c0-3.2,0.5-6.1,1.4-8.6c1-2.5,2.4-4.5,4.2-5.9c1.9-1.4,4.1-2.1,6.8-2.1c2.7,0,5,0.7,6.9,2.2c1.9,1.5,3.3,3.5,4.2,6
		c1,2.5,1.5,5.3,1.5,8.4C648.2,195.3,647.7,198.1,646.7,200.6z"/>
	<path class="st0" d="M687.3,173.9c-1.4-1-3-1.7-4.7-2.1c-1.7-0.4-3.3-0.6-4.8-0.6c-2.1,0-4.1,0.3-6.1,0.9c-2,0.6-3.8,1.5-5.5,2.9
		c-1.6,1.3-2.9,3.1-3.8,5.3l4.5,1.6c0.7-1.7,2-3.3,3.9-4.6c1.9-1.3,4.2-1.9,7.2-1.9c3.1,0,5.5,0.8,7.1,2.4c1.7,1.6,2.5,3.8,2.5,6.5
		v1c0,1-0.4,1.8-1.2,2.2c-0.8,0.5-2,0.8-3.6,1c-1.6,0.2-3.5,0.5-5.8,0.7c-2.3,0.3-4.4,0.7-6.3,1.2c-1.9,0.5-3.6,1.2-5,2.1
		c-1.4,0.9-2.5,2-3.2,3.4c-0.8,1.4-1.1,3.1-1.1,5.1c0,2.6,0.6,4.8,1.8,6.7c1.2,1.8,2.8,3.2,4.8,4.2c2,1,4.3,1.4,6.7,1.4
		c2.3,0,4.2-0.4,5.9-1.1s3.1-1.7,4.2-2.8c1.1-1.1,2-2.3,2.5-3.5h0.3v6.4h4.7v-27.6c0-2.7-0.5-5-1.4-6.7
		C689.9,176.3,688.8,174.9,687.3,173.9z M687.5,196.8c0,2.2-0.5,4.3-1.5,6.1c-1,1.8-2.4,3.3-4.2,4.4c-1.8,1.1-4,1.7-6.5,1.7
		c-2.7,0-4.9-0.7-6.6-2c-1.8-1.4-2.6-3.3-2.6-5.7c0-1.6,0.4-3,1.3-4c0.9-1.1,2.1-1.9,3.7-2.5c1.6-0.6,3.6-1,5.9-1.3
		c0.8-0.1,1.8-0.2,2.9-0.4c1.1-0.1,2.1-0.3,3.2-0.5c1.1-0.2,2-0.5,2.8-0.7c0.8-0.3,1.4-0.6,1.8-0.9V196.8z"/>
	<path class="st0" d="M720.8,171.1c-2.6,0-4.9,0.6-6.9,1.9c-2,1.3-3.4,2.9-4.2,5h-0.3v-6.3h-4.6v40.7h4.7v-26.3c0-2,0.5-3.8,1.4-5.4
		c1-1.6,2.3-2.8,3.9-3.7c1.7-0.9,3.5-1.4,5.7-1.4c0.6,0,1.2,0,1.7,0.1c0.5,0.1,0.9,0.1,1.1,0.2v-4.8c-0.3,0-0.7,0-1.2-0.1
		C721.6,171.1,721.2,171.1,720.8,171.1z"/>
	<path class="st0" d="M755.4,173.9c-1.4-1-3-1.7-4.7-2.1c-1.7-0.4-3.3-0.6-4.8-0.6c-2.1,0-4.1,0.3-6.1,0.9c-2,0.6-3.8,1.5-5.5,2.9
		c-1.6,1.3-2.9,3.1-3.8,5.3l4.5,1.6c0.7-1.7,2-3.3,3.9-4.6c1.9-1.3,4.2-1.9,7.2-1.9c3.1,0,5.5,0.8,7.1,2.4c1.7,1.6,2.5,3.8,2.5,6.5
		v1c0,1-0.4,1.8-1.2,2.2c-0.8,0.5-2,0.8-3.6,1c-1.6,0.2-3.5,0.5-5.8,0.7c-2.3,0.3-4.4,0.7-6.3,1.2c-1.9,0.5-3.6,1.2-5,2.1
		c-1.4,0.9-2.5,2-3.2,3.4c-0.8,1.4-1.1,3.1-1.1,5.1c0,2.6,0.6,4.8,1.8,6.7c1.2,1.8,2.8,3.2,4.8,4.2c2,1,4.3,1.4,6.7,1.4
		c2.3,0,4.2-0.4,5.9-1.1c1.7-0.7,3.1-1.7,4.2-2.8s2-2.3,2.5-3.5h0.3v6.4h4.7v-27.6c0-2.7-0.5-5-1.3-6.7
		C758,176.3,756.9,174.9,755.4,173.9z M755.6,196.8c0,2.2-0.5,4.3-1.5,6.1c-1,1.8-2.4,3.3-4.2,4.4c-1.8,1.1-4,1.7-6.5,1.7
		c-2.7,0-4.9-0.7-6.6-2c-1.8-1.4-2.6-3.3-2.6-5.7c0-1.6,0.4-3,1.3-4c0.9-1.1,2.1-1.9,3.7-2.5c1.6-0.6,3.6-1,5.9-1.3
		c0.8-0.1,1.8-0.2,2.9-0.4s2.1-0.3,3.2-0.5c1.1-0.2,2-0.5,2.8-0.7c0.8-0.3,1.4-0.6,1.8-0.9V196.8z"/>
	<path class="st0" d="M821.4,176.1c-1.6-1.7-3.5-2.9-5.5-3.7c-2-0.8-4.2-1.2-6.4-1.2c-3.5,0-6.6,0.9-9.3,2.7
		c-2.7,1.8-4.8,4.3-6.3,7.5c-1.5,3.2-2.3,6.8-2.3,10.9c0,4.1,0.8,7.8,2.3,10.9c1.5,3.1,3.7,5.6,6.4,7.4c2.8,1.8,6.1,2.6,9.9,2.6
		c2.7,0,5.1-0.4,7.2-1.3c2.1-0.9,3.8-2,5.2-3.5c1.4-1.4,2.4-3,3-4.7l-4.5-1.5c-0.5,1.2-1.3,2.3-2.3,3.4c-1,1-2.2,1.8-3.7,2.4
		c-1.4,0.6-3.1,0.9-5.1,0.9c-2.8,0-5.3-0.7-7.3-2c-2.1-1.3-3.7-3.2-4.8-5.6c-1-2.3-1.6-4.9-1.6-7.9h30.3v-2.3c0-3.4-0.5-6.4-1.4-8.8
		C824.4,179.8,823.1,177.7,821.4,176.1z M796.5,189.3c0.1-2.3,0.7-4.4,1.6-6.3c1.1-2.3,2.6-4.1,4.6-5.5c2-1.4,4.2-2.1,6.8-2.1
		c2.4,0,4.6,0.6,6.4,1.8c1.9,1.2,3.3,2.9,4.4,5c1.1,2.1,1.6,4.4,1.6,7H796.5z"/>
	<rect x="837.1" y="158.2" class="st0" width="4.7" height="54.2"/>
	<path class="st0" d="M914.6,171.2c-3,0-5.5,0.7-7.6,2c-2.1,1.3-3.6,3.1-4.5,5.4h-0.3c-0.9-2.3-2.3-4.1-4.1-5.4
		c-1.8-1.3-4.1-2-6.9-2c-2.7,0-5,0.6-6.9,1.8c-1.9,1.2-3.2,2.9-4.1,5h-0.4v-6.3h-4.6v40.7h4.7v-26.1c0-2.1,0.4-4,1.3-5.6
		c0.9-1.6,2-2.9,3.5-3.8c1.5-0.9,3.2-1.4,5.1-1.4c2.8,0,5,0.8,6.5,2.5s2.3,3.9,2.3,6.7v27.7h4.8v-26.8c0-2.9,0.8-5.3,2.5-7.3
		c1.7-1.9,4.1-2.9,7.2-2.9c2.7,0,4.8,0.8,6.5,2.4c1.6,1.6,2.5,4,2.5,7.2v27.3h4.7v-27.3c0-4.6-1.1-8-3.3-10.4
		C921.4,172.4,918.4,171.2,914.6,171.2z"/>
	<path class="st0" d="M963.4,173.9c-1.4-1-3-1.7-4.7-2.1c-1.7-0.4-3.3-0.6-4.8-0.6c-2.1,0-4.1,0.3-6.1,0.9c-2,0.6-3.8,1.5-5.5,2.9
		c-1.6,1.3-2.9,3.1-3.8,5.3l4.5,1.6c0.7-1.7,2-3.3,3.9-4.6c1.9-1.3,4.2-1.9,7.2-1.9c3.1,0,5.5,0.8,7.1,2.4c1.7,1.6,2.5,3.8,2.5,6.5
		v1c0,1-0.4,1.8-1.2,2.2c-0.8,0.5-2,0.8-3.6,1c-1.6,0.2-3.5,0.5-5.8,0.7c-2.3,0.3-4.4,0.7-6.3,1.2c-1.9,0.5-3.6,1.2-5,2.1
		c-1.4,0.9-2.5,2-3.2,3.4c-0.8,1.4-1.1,3.1-1.1,5.1c0,2.6,0.6,4.8,1.8,6.7c1.2,1.8,2.8,3.2,4.8,4.2c2,1,4.3,1.4,6.7,1.4
		c2.3,0,4.2-0.4,5.9-1.1s3.1-1.7,4.2-2.8c1.1-1.1,2-2.3,2.5-3.5h0.3v6.4h4.7v-27.6c0-2.7-0.5-5-1.4-6.7
		C966,176.3,964.9,174.9,963.4,173.9z M963.6,196.8c0,2.2-0.5,4.3-1.5,6.1c-1,1.8-2.4,3.3-4.2,4.4c-1.8,1.1-4,1.7-6.5,1.7
		c-2.7,0-4.9-0.7-6.6-2c-1.8-1.4-2.6-3.3-2.6-5.7c0-1.6,0.4-3,1.3-4c0.9-1.1,2.1-1.9,3.7-2.5c1.6-0.6,3.6-1,5.9-1.3
		c0.8-0.1,1.8-0.2,2.9-0.4c1.1-0.1,2.1-0.3,3.2-0.5c1.1-0.2,2-0.5,2.8-0.7c0.8-0.3,1.4-0.6,1.8-0.9V196.8z"/>
	<path class="st0" d="M996,208.3c-0.4,0.1-1,0.1-1.6,0.1c-1.1,0-2.1-0.2-3-0.6c-0.9-0.4-1.7-1.1-2.3-2c-0.6-1-0.9-2.3-0.9-4v-26h8.6
		v-4.1h-8.6V162h-4.7v9.7h-6.1v4.1h6.1v27.1c0,2.2,0.5,4.1,1.5,5.6c1,1.5,2.3,2.6,3.9,3.4c1.6,0.8,3.3,1.1,5,1.1
		c1,0,1.8-0.1,2.5-0.2c0.7-0.1,1.2-0.3,1.7-0.5l-1-4.3C996.8,208.1,996.4,208.2,996,208.3z"/>
	<path class="st0" d="M1034.8,176.1c-1.6-1.7-3.5-2.9-5.5-3.7c-2.1-0.8-4.2-1.2-6.4-1.2c-3.5,0-6.6,0.9-9.3,2.7
		c-2.7,1.8-4.8,4.3-6.3,7.5c-1.5,3.2-2.3,6.8-2.3,10.9c0,4.1,0.8,7.8,2.3,10.9c1.5,3.1,3.7,5.6,6.4,7.4c2.8,1.8,6.1,2.6,9.9,2.6
		c2.7,0,5.1-0.4,7.2-1.3c2.1-0.9,3.8-2,5.3-3.5c1.4-1.4,2.4-3,3-4.7l-4.5-1.5c-0.5,1.2-1.3,2.3-2.3,3.4c-1,1-2.2,1.8-3.7,2.4
		c-1.4,0.6-3.1,0.9-5.1,0.9c-2.8,0-5.3-0.7-7.3-2c-2.1-1.3-3.7-3.2-4.8-5.6c-1-2.3-1.6-4.9-1.6-7.9h30.3v-2.3c0-3.4-0.5-6.4-1.4-8.8
		C1037.7,179.8,1036.4,177.7,1034.8,176.1z M1009.8,189.3c0.1-2.3,0.7-4.4,1.6-6.3c1.1-2.3,2.7-4.1,4.6-5.5c2-1.4,4.2-2.1,6.8-2.1
		c2.4,0,4.6,0.6,6.4,1.8c1.9,1.2,3.3,2.9,4.4,5c1.1,2.1,1.6,4.4,1.6,7H1009.8z"/>
</g>
</svg>
